<svg id="svg" version="1.1" xmlns="http://www.w3.org/2000/svg" xmlns:xlink="http://www.w3.org/1999/xlink" width="400" height="400" viewBox="0, 0, 400,400"><g id="svgg"><path id="path0" d="M184.500 0.273 C 182.905 0.362,181.600 0.607,181.600 0.818 C 181.600 1.028,180.801 1.200,179.824 1.200 C 178.847 1.200,177.936 1.380,177.800 1.600 C 177.664 1.820,176.933 2.000,176.176 2.000 C 175.419 2.000,174.800 2.180,174.800 2.400 C 174.800 2.620,174.080 2.800,173.200 2.800 C 172.320 2.800,171.600 2.980,171.600 3.200 C 171.600 3.420,171.060 3.600,170.400 3.600 C 169.740 3.600,169.200 3.780,169.200 4.000 C 169.200 4.220,168.660 4.400,168.000 4.400 C 167.340 4.400,166.800 4.580,166.800 4.800 C 166.800 5.020,166.260 5.200,165.600 5.200 C 164.940 5.200,164.400 5.380,164.400 5.600 C 164.400 5.820,163.961 6.000,163.424 6.000 C 162.887 6.000,162.336 6.180,162.200 6.400 C 162.064 6.620,161.603 6.800,161.176 6.800 C 160.749 6.800,160.400 6.980,160.400 7.200 C 160.400 7.420,160.128 7.600,159.795 7.600 C 159.462 7.600,158.877 7.752,158.495 7.939 C 158.113 8.125,155.958 9.160,153.706 10.239 C 151.454 11.317,149.609 12.335,149.606 12.500 C 149.603 12.665,149.240 12.800,148.800 12.800 C 148.360 12.800,148.000 12.980,148.000 13.200 C 148.000 13.420,147.764 13.600,147.475 13.600 C 147.187 13.600,146.602 13.915,146.175 14.300 C 145.749 14.685,144.905 15.255,144.300 15.568 C 143.695 15.880,143.200 16.285,143.200 16.468 C 143.200 16.650,142.970 16.800,142.688 16.800 C 142.407 16.800,141.917 17.160,141.600 17.600 C 141.283 18.040,140.817 18.400,140.565 18.400 C 140.314 18.400,139.093 19.374,137.854 20.565 L 135.600 22.731 135.600 25.922 C 135.600 29.052,135.621 29.118,136.676 29.383 C 137.267 29.532,138.240 30.001,138.837 30.427 C 141.087 32.028,143.738 31.527,147.400 28.808 C 154.771 23.335,166.148 17.572,173.600 15.537 C 174.370 15.327,175.630 14.973,176.400 14.751 C 219.018 2.451,265.622 25.684,282.412 67.600 C 284.519 72.860,285.595 76.513,287.184 83.800 C 288.626 90.415,289.112 105.867,288.064 111.800 C 286.921 118.265,286.653 119.571,285.764 123.000 C 284.141 129.258,281.632 135.716,278.540 141.600 C 267.039 163.482,245.121 180.900,222.200 186.373 C 221.100 186.636,219.570 187.012,218.800 187.209 C 218.030 187.406,216.770 187.665,216.000 187.784 C 215.230 187.904,213.160 188.221,211.400 188.490 C 207.260 189.123,192.726 189.121,188.600 188.488 C 181.425 187.387,178.359 186.675,171.800 184.584 C 164.735 182.333,154.484 177.113,148.800 172.873 C 147.810 172.134,146.467 171.141,145.816 170.665 C 132.313 160.800,119.016 141.402,114.786 125.400 C 111.794 114.079,111.429 111.360,111.429 100.400 C 111.429 91.529,111.556 89.984,112.843 83.200 C 115.165 70.952,123.564 52.411,129.485 46.460 C 131.147 44.790,131.531 42.076,130.398 40.000 C 129.978 39.230,129.429 38.105,129.178 37.500 C 128.927 36.895,128.469 36.400,128.161 36.400 C 127.852 36.400,127.600 36.220,127.600 36.000 C 127.600 35.780,126.610 35.600,125.400 35.600 C 124.190 35.600,123.200 35.780,123.200 36.000 C 123.200 36.220,122.925 36.400,122.589 36.400 C 121.845 36.400,118.400 39.773,118.400 40.501 C 118.400 40.788,118.040 41.283,117.600 41.600 C 117.160 41.917,116.800 42.341,116.800 42.541 C 116.800 42.742,116.484 43.197,116.097 43.553 C 115.711 43.909,115.140 44.695,114.830 45.300 C 114.519 45.905,114.115 46.400,113.932 46.400 C 113.750 46.400,113.600 46.760,113.600 47.200 C 113.600 47.640,113.455 48.000,113.279 48.000 C 113.102 48.000,112.517 48.897,111.979 49.994 C 111.440 51.090,110.865 51.990,110.700 51.994 C 110.535 51.997,110.400 52.360,110.400 52.800 C 110.400 53.240,110.220 53.600,110.000 53.600 C 109.780 53.600,109.600 53.849,109.600 54.154 C 109.600 54.459,109.331 55.224,109.002 55.854 C 108.674 56.484,108.404 57.315,108.402 57.700 C 108.401 58.085,108.264 58.400,108.098 58.400 C 107.931 58.400,107.560 58.985,107.271 59.700 C 106.983 60.415,106.579 61.313,106.374 61.695 C 106.168 62.077,106.000 62.662,106.000 62.995 C 106.000 63.328,105.820 63.600,105.600 63.600 C 105.380 63.600,105.200 64.140,105.200 64.800 C 105.200 65.460,105.020 66.000,104.800 66.000 C 104.580 66.000,104.400 66.540,104.400 67.200 C 104.400 67.860,104.220 68.400,104.000 68.400 C 103.780 68.400,103.600 68.940,103.600 69.600 C 103.600 70.260,103.420 70.800,103.200 70.800 C 102.980 70.800,102.800 71.340,102.800 72.000 C 102.800 72.660,102.620 73.200,102.400 73.200 C 102.180 73.200,102.000 73.920,102.000 74.800 C 102.000 75.680,101.820 76.400,101.600 76.400 C 101.380 76.400,101.200 77.210,101.200 78.200 C 101.200 79.190,101.020 80.000,100.800 80.000 C 100.580 80.000,100.400 80.979,100.400 82.176 C 100.400 83.373,100.220 84.464,100.000 84.600 C 99.780 84.736,99.600 86.277,99.600 88.024 C 99.600 89.875,99.433 91.200,99.200 91.200 C 98.945 91.200,98.800 94.533,98.800 100.400 C 98.800 106.267,98.945 109.600,99.200 109.600 C 99.433 109.600,99.600 110.933,99.600 112.800 C 99.600 114.667,99.767 116.000,100.000 116.000 C 100.220 116.000,100.400 116.979,100.400 118.176 C 100.400 119.373,100.580 120.464,100.800 120.600 C 101.020 120.736,101.200 121.546,101.200 122.400 C 101.200 123.254,101.380 124.064,101.600 124.200 C 101.820 124.336,102.000 125.056,102.000 125.800 C 102.000 126.544,102.180 127.264,102.400 127.400 C 102.620 127.536,102.800 128.177,102.800 128.824 C 102.800 129.471,102.980 130.000,103.200 130.000 C 103.420 130.000,103.600 130.540,103.600 131.200 C 103.600 131.860,103.780 132.400,104.000 132.400 C 104.220 132.400,104.400 132.940,104.400 133.600 C 104.400 134.260,104.580 134.800,104.800 134.800 C 105.020 134.800,105.200 135.239,105.200 135.776 C 105.200 136.313,105.380 136.864,105.600 137.000 C 105.820 137.136,106.000 137.597,106.000 138.024 C 106.000 138.451,106.180 138.800,106.400 138.800 C 106.620 138.800,106.800 139.250,106.800 139.800 C 106.800 140.350,106.980 140.800,107.200 140.800 C 107.420 140.800,107.600 141.160,107.600 141.600 C 107.600 142.040,107.780 142.400,108.000 142.400 C 108.220 142.400,108.400 142.681,108.400 143.024 C 108.400 143.542,109.786 146.511,112.541 151.897 C 112.794 152.390,113.135 152.795,113.300 152.797 C 113.465 152.799,113.600 153.036,113.600 153.325 C 113.600 153.613,113.915 154.198,114.300 154.625 C 114.685 155.051,115.255 155.895,115.568 156.500 C 115.880 157.105,116.285 157.600,116.468 157.600 C 116.650 157.600,116.800 157.830,116.800 158.112 C 116.800 158.393,117.160 158.883,117.600 159.200 C 118.040 159.517,118.400 159.985,118.400 160.240 C 118.400 160.495,119.120 161.445,120.000 162.352 C 120.880 163.259,121.600 164.171,121.600 164.379 C 121.600 165.351,135.534 179.200,136.512 179.200 C 136.714 179.200,137.383 179.740,138.000 180.400 C 138.617 181.060,139.327 181.600,139.579 181.600 C 139.830 181.600,140.456 182.005,140.968 182.500 C 142.493 183.974,143.584 184.800,144.005 184.800 C 144.222 184.800,144.400 184.980,144.400 185.200 C 144.400 185.420,144.670 185.600,145.000 185.600 C 145.330 185.600,145.600 185.780,145.600 186.000 C 145.600 186.220,145.878 186.400,146.217 186.400 C 146.556 186.400,147.220 186.760,147.692 187.200 C 148.164 187.640,148.787 188.000,149.075 188.000 C 149.364 188.000,149.600 188.180,149.600 188.400 C 149.600 188.620,149.945 188.800,150.367 188.800 C 150.788 188.800,151.193 188.935,151.267 189.100 C 151.462 189.538,155.496 191.600,156.159 191.600 C 156.828 191.600,160.141 193.267,160.333 193.700 C 160.407 193.865,160.992 194.000,161.633 194.000 C 162.275 194.000,162.800 194.180,162.800 194.400 C 162.800 194.620,163.160 194.800,163.600 194.800 C 164.040 194.800,164.400 194.980,164.400 195.200 C 164.400 195.420,164.940 195.600,165.600 195.600 C 166.260 195.600,166.800 195.780,166.800 196.000 C 166.800 196.220,167.340 196.400,168.000 196.400 C 168.660 196.400,169.200 196.580,169.200 196.800 C 169.200 197.020,169.740 197.200,170.400 197.200 C 171.060 197.200,171.600 197.380,171.600 197.600 C 171.600 197.820,172.320 198.000,173.200 198.000 C 174.080 198.000,174.800 198.180,174.800 198.400 C 174.800 198.620,175.520 198.800,176.400 198.800 C 177.280 198.800,178.000 198.980,178.000 199.200 C 178.000 199.420,178.810 199.600,179.800 199.600 L 181.600 199.600 181.600 285.800 C 181.600 343.000,181.735 372.000,182.000 372.000 C 182.220 372.000,182.400 372.979,182.400 374.176 C 182.400 375.373,182.580 376.464,182.800 376.600 C 183.020 376.736,183.200 377.379,183.200 378.029 C 183.200 379.165,183.316 379.518,184.338 381.495 C 184.592 381.987,184.800 382.752,184.800 383.195 C 184.800 383.638,184.980 384.000,185.200 384.000 C 185.420 384.000,185.600 384.360,185.600 384.800 C 185.600 385.240,185.780 385.600,186.000 385.600 C 186.220 385.600,186.400 385.960,186.400 386.400 C 186.400 386.840,186.580 387.200,186.800 387.200 C 187.020 387.200,187.200 387.560,187.200 388.000 C 187.200 388.440,187.336 388.800,187.502 388.800 C 187.669 388.800,188.058 389.372,188.368 390.072 C 188.678 390.772,189.441 391.879,190.065 392.531 C 190.689 393.184,191.200 393.880,191.200 394.076 C 191.200 394.530,191.699 395.131,194.309 397.824 L 196.417 400.000 200.000 400.000 L 203.583 400.000 205.691 397.824 C 208.301 395.131,208.800 394.530,208.800 394.076 C 208.800 393.880,209.311 393.184,209.935 392.531 C 210.559 391.879,211.322 390.772,211.632 390.072 C 211.942 389.372,212.331 388.800,212.498 388.800 C 212.664 388.800,212.800 388.440,212.800 388.000 C 212.800 387.560,212.980 387.200,213.200 387.200 C 213.420 387.200,213.600 386.840,213.600 386.400 C 213.600 385.960,213.780 385.600,214.000 385.600 C 214.220 385.600,214.400 385.240,214.400 384.800 C 214.400 384.360,214.580 384.000,214.800 384.000 C 215.020 384.000,215.200 383.638,215.200 383.195 C 215.200 382.752,215.380 382.032,215.600 381.595 C 215.820 381.158,216.180 380.442,216.400 380.005 C 216.620 379.568,216.800 378.679,216.800 378.029 C 216.800 377.379,216.980 376.736,217.200 376.600 C 217.420 376.464,217.600 375.373,217.600 374.176 C 217.600 372.979,217.780 372.000,218.000 372.000 C 218.265 372.000,218.400 343.000,218.400 285.800 L 218.400 199.600 220.176 199.600 C 221.153 199.600,222.064 199.420,222.200 199.200 C 222.336 198.980,223.067 198.800,223.824 198.800 C 224.581 198.800,225.200 198.620,225.200 198.400 C 225.200 198.180,225.920 198.000,226.800 198.000 C 227.680 198.000,228.400 197.820,228.400 197.600 C 228.400 197.380,228.940 197.200,229.600 197.200 C 230.260 197.200,230.800 197.020,230.800 196.800 C 230.800 196.580,231.340 196.400,232.000 196.400 C 232.660 196.400,233.200 196.220,233.200 196.000 C 233.200 195.780,233.740 195.600,234.400 195.600 C 235.060 195.600,235.600 195.420,235.600 195.200 C 235.600 194.980,235.949 194.800,236.376 194.800 C 236.803 194.800,237.264 194.620,237.400 194.400 C 237.536 194.180,238.087 194.000,238.624 194.000 C 239.161 194.000,239.601 193.865,239.603 193.700 C 239.607 193.294,241.586 192.400,242.480 192.400 C 242.876 192.400,243.200 192.220,243.200 192.000 C 243.200 191.780,243.435 191.600,243.721 191.600 C 244.400 191.600,248.560 189.545,248.733 189.124 C 248.807 188.946,249.212 188.800,249.633 188.800 C 250.055 188.800,250.400 188.620,250.400 188.400 C 250.400 188.180,250.636 188.000,250.925 188.000 C 251.213 188.000,251.836 187.640,252.308 187.200 C 252.780 186.760,253.444 186.400,253.783 186.400 C 254.122 186.400,254.400 186.220,254.400 186.000 C 254.400 185.780,254.670 185.600,255.000 185.600 C 255.330 185.600,255.600 185.420,255.600 185.200 C 255.600 184.980,255.870 184.800,256.200 184.800 C 256.530 184.800,256.800 184.620,256.800 184.400 C 256.800 184.180,256.998 184.000,257.240 184.000 C 257.481 184.000,258.183 183.460,258.800 182.800 C 259.417 182.140,260.137 181.600,260.400 181.600 C 260.663 181.600,261.383 181.060,262.000 180.400 C 262.617 179.740,263.286 179.200,263.488 179.200 C 264.467 179.200,278.400 165.352,278.400 164.379 C 278.400 164.171,279.120 163.259,280.000 162.352 C 280.880 161.445,281.600 160.495,281.600 160.240 C 281.600 159.985,281.960 159.517,282.400 159.200 C 282.840 158.883,283.200 158.393,283.200 158.112 C 283.200 157.830,283.350 157.600,283.532 157.600 C 283.715 157.600,284.120 157.105,284.432 156.500 C 284.745 155.895,285.315 155.051,285.700 154.625 C 286.085 154.198,286.400 153.613,286.400 153.325 C 286.400 153.036,286.535 152.799,286.700 152.797 C 286.865 152.795,287.206 152.390,287.459 151.897 C 290.214 146.511,291.600 143.542,291.600 143.024 C 291.600 142.681,291.780 142.400,292.000 142.400 C 292.220 142.400,292.400 142.040,292.400 141.600 C 292.400 141.160,292.580 140.800,292.800 140.800 C 293.020 140.800,293.200 140.350,293.200 139.800 C 293.200 139.250,293.380 138.800,293.600 138.800 C 293.820 138.800,294.000 138.440,294.000 138.000 C 294.000 137.560,294.180 137.200,294.400 137.200 C 294.620 137.200,294.800 136.660,294.800 136.000 C 294.800 135.340,294.980 134.800,295.200 134.800 C 295.420 134.800,295.600 134.260,295.600 133.600 C 295.600 132.940,295.780 132.400,296.000 132.400 C 296.220 132.400,296.400 131.860,296.400 131.200 C 296.400 130.540,296.580 130.000,296.800 130.000 C 297.020 130.000,297.200 129.381,297.200 128.624 C 297.200 127.867,297.380 127.136,297.600 127.000 C 297.820 126.864,298.000 126.234,298.000 125.600 C 298.000 124.966,298.180 124.336,298.400 124.200 C 298.620 124.064,298.800 123.254,298.800 122.400 C 298.800 121.546,298.980 120.736,299.200 120.600 C 299.420 120.464,299.600 119.373,299.600 118.176 C 299.600 116.979,299.780 116.000,300.000 116.000 C 300.232 116.000,300.400 114.693,300.400 112.880 C 300.400 111.164,300.587 109.573,300.816 109.344 C 301.571 108.589,300.752 84.800,299.971 84.800 C 299.767 84.800,299.600 83.821,299.600 82.624 C 299.600 81.427,299.420 80.336,299.200 80.200 C 298.980 80.064,298.800 79.243,298.800 78.376 C 298.800 77.509,298.620 76.800,298.400 76.800 C 298.180 76.800,298.000 76.181,298.000 75.424 C 298.000 74.667,297.820 73.936,297.600 73.800 C 297.380 73.664,297.200 72.933,297.200 72.176 C 297.200 71.419,297.020 70.800,296.800 70.800 C 296.580 70.800,296.400 70.260,296.400 69.600 C 296.400 68.940,296.220 68.400,296.000 68.400 C 295.780 68.400,295.600 67.860,295.600 67.200 C 295.600 66.540,295.420 66.000,295.200 66.000 C 294.980 66.000,294.800 65.561,294.800 65.024 C 294.800 64.487,294.620 63.936,294.400 63.800 C 294.180 63.664,294.000 63.203,294.000 62.776 C 294.000 62.349,293.820 62.000,293.600 62.000 C 293.380 62.000,293.200 61.550,293.200 61.000 C 293.200 60.450,293.020 60.000,292.800 60.000 C 292.580 60.000,292.400 59.640,292.400 59.200 C 292.400 58.760,292.220 58.400,292.000 58.400 C 291.780 58.400,291.600 58.096,291.600 57.724 C 291.600 56.823,288.001 49.600,287.552 49.600 C 287.358 49.600,287.200 49.240,287.200 48.800 C 287.200 48.360,287.020 48.000,286.800 48.000 C 286.580 48.000,286.400 47.764,286.400 47.475 C 286.400 47.187,286.085 46.602,285.700 46.175 C 285.315 45.749,284.745 44.905,284.432 44.300 C 284.120 43.695,283.715 43.200,283.532 43.200 C 283.350 43.200,283.200 42.970,283.200 42.688 C 283.200 42.407,282.840 41.917,282.400 41.600 C 281.960 41.283,281.600 40.779,281.600 40.480 C 281.600 40.182,280.880 39.246,280.000 38.400 C 279.120 37.554,278.400 36.675,278.400 36.446 C 278.400 35.417,264.514 21.600,263.479 21.600 C 263.282 21.600,262.617 21.060,262.000 20.400 C 261.383 19.740,260.663 19.200,260.400 19.200 C 260.137 19.200,259.417 18.660,258.800 18.000 C 258.183 17.340,257.481 16.800,257.240 16.800 C 256.998 16.800,256.800 16.620,256.800 16.400 C 256.800 16.180,256.530 16.000,256.200 16.000 C 255.870 16.000,255.600 15.820,255.600 15.600 C 255.600 15.380,255.345 15.200,255.033 15.200 C 254.722 15.200,254.407 15.065,254.333 14.900 C 254.166 14.524,252.036 13.225,251.100 12.929 C 250.715 12.807,250.400 12.548,250.400 12.353 C 250.400 12.159,250.055 12.000,249.633 12.000 C 249.212 12.000,248.807 11.863,248.733 11.697 C 248.558 11.299,244.084 8.970,242.800 8.610 C 241.121 8.138,239.600 7.421,239.600 7.102 C 239.600 6.936,239.161 6.800,238.624 6.800 C 238.087 6.800,237.536 6.620,237.400 6.400 C 237.264 6.180,236.803 6.000,236.376 6.000 C 235.949 6.000,235.600 5.820,235.600 5.600 C 235.600 5.380,235.060 5.200,234.400 5.200 C 233.740 5.200,233.200 5.020,233.200 4.800 C 233.200 4.580,232.660 4.400,232.000 4.400 C 231.340 4.400,230.800 4.220,230.800 4.000 C 230.800 3.780,230.260 3.600,229.600 3.600 C 228.940 3.600,228.400 3.420,228.400 3.200 C 228.400 2.980,227.680 2.800,226.800 2.800 C 225.920 2.800,225.200 2.620,225.200 2.400 C 225.200 2.180,224.581 2.000,223.824 2.000 C 223.067 2.000,222.336 1.820,222.200 1.600 C 222.064 1.380,221.189 1.200,220.256 1.200 C 219.323 1.200,218.341 0.981,218.073 0.713 C 217.588 0.228,191.456 -0.114,184.500 0.273 M206.045 210.400 C 206.626 233.661,206.390 365.611,205.759 369.800 C 204.842 375.890,204.739 376.390,204.356 376.627 C 204.160 376.748,204.000 377.126,204.000 377.468 C 204.000 379.611,200.367 385.202,199.462 384.452 C 198.799 383.901,196.000 378.301,196.000 377.524 C 196.000 377.214,195.853 376.789,195.673 376.580 C 195.178 376.004,194.501 372.655,193.981 368.200 C 193.444 363.610,193.569 201.757,194.110 200.923 C 194.329 200.584,196.067 200.468,200.110 200.523 L 205.800 200.600 206.045 210.400 " stroke="none" fill="#050404" fill-rule="evenodd"></path><path id="path1" d="M194.618 218.100 C 194.162 245.986,194.519 371.588,195.059 373.000 C 195.311 373.660,195.808 375.190,196.164 376.400 C 197.027 379.332,199.337 383.800,199.990 383.800 C 200.697 383.800,203.339 378.467,204.454 374.787 L 205.360 371.800 205.509 303.400 C 205.592 265.780,205.534 227.395,205.382 218.100 L 205.106 201.200 200.000 201.200 L 194.894 201.200 194.618 218.100 " stroke="none" fill="#a9d0d9" fill-rule="evenodd"></path><path id="path2" d="M191.800 12.038 C 186.507 12.589,180.684 13.587,178.000 14.403 C 177.450 14.570,176.190 14.929,175.200 15.200 C 173.163 15.758,171.376 16.330,170.200 16.801 C 169.760 16.978,168.320 17.536,167.000 18.042 C 162.343 19.826,156.144 23.137,151.258 26.450 C 142.958 32.076,141.295 32.592,138.513 30.403 C 137.952 29.961,137.221 29.600,136.890 29.600 C 135.978 29.600,138.780 31.352,140.600 31.920 C 142.448 32.496,144.422 31.985,146.306 30.445 C 146.908 29.953,147.895 29.253,148.500 28.889 C 149.105 28.525,149.600 28.086,149.600 27.914 C 149.600 27.741,149.788 27.600,150.017 27.600 C 150.246 27.600,150.820 27.240,151.292 26.800 C 151.764 26.360,152.387 26.000,152.675 26.000 C 152.964 26.000,153.200 25.841,153.200 25.647 C 153.200 25.452,153.515 25.193,153.900 25.071 C 154.620 24.843,156.844 23.570,157.200 23.182 C 158.397 21.877,172.367 16.309,177.400 15.131 C 189.146 12.381,198.409 11.658,208.400 12.709 C 214.439 13.345,218.776 14.102,222.500 15.170 C 223.325 15.406,224.585 15.765,225.300 15.967 C 236.544 19.139,242.183 22.978,249.442 32.400 C 275.755 66.554,278.442 120.527,255.756 159.200 C 250.909 167.462,241.791 177.880,237.515 180.041 C 232.947 182.350,227.650 184.295,222.300 185.627 C 221.475 185.832,220.035 186.194,219.100 186.430 C 208.526 189.108,191.543 189.107,180.900 186.428 C 179.965 186.193,178.525 185.832,177.700 185.627 C 173.286 184.528,171.708 183.998,166.577 181.893 C 161.825 179.944,156.032 176.992,153.328 175.143 C 152.408 174.514,151.463 174.000,151.228 174.000 C 150.993 174.000,150.800 173.859,150.800 173.686 C 150.800 173.514,150.280 173.065,149.645 172.690 C 144.487 169.643,133.371 158.834,129.192 152.800 C 128.658 152.030,127.931 151.082,127.575 150.693 C 127.219 150.305,126.674 149.495,126.364 148.893 C 126.054 148.292,125.485 147.451,125.100 147.025 C 124.715 146.598,124.400 146.013,124.400 145.725 C 124.400 145.436,124.214 145.200,123.986 145.200 C 122.488 145.200,131.167 156.781,137.186 162.812 C 149.577 175.229,165.468 183.912,181.800 187.188 C 183.120 187.453,184.650 187.760,185.200 187.870 C 187.664 188.363,196.914 189.184,200.000 189.184 C 203.086 189.184,212.336 188.363,214.800 187.870 C 219.475 186.935,220.957 186.599,223.400 185.921 C 227.162 184.876,230.639 183.696,232.696 182.767 C 233.628 182.345,234.507 182.000,234.649 182.000 C 234.936 182.000,240.235 179.332,242.530 178.033 C 243.338 177.575,244.674 176.818,245.498 176.352 C 265.880 164.811,281.580 142.381,286.986 117.081 C 288.817 108.507,288.817 92.293,286.986 83.719 C 281.858 59.717,269.200 40.555,249.600 27.122 C 244.270 23.469,238.471 20.362,231.800 17.585 C 229.058 16.444,222.000 14.385,218.200 13.617 C 216.880 13.350,215.440 13.051,215.000 12.953 C 210.050 11.841,198.180 11.373,191.800 12.038 M129.212 37.500 C 129.219 37.665,129.668 38.520,130.210 39.400 C 131.677 41.781,131.522 43.455,129.576 46.260 C 124.437 53.666,119.680 61.913,118.074 66.200 C 117.827 66.860,117.243 68.390,116.777 69.600 C 116.310 70.810,115.774 72.340,115.587 73.000 C 112.171 85.022,111.478 89.640,111.479 100.400 C 111.480 109.248,112.125 114.923,113.888 121.600 C 114.208 122.810,114.612 124.340,114.786 125.000 C 115.862 129.071,119.215 137.473,121.099 140.823 C 121.539 141.605,122.205 142.837,122.579 143.560 C 122.953 144.283,123.339 144.795,123.436 144.698 C 123.533 144.600,122.901 143.186,122.032 141.556 C 119.161 136.171,115.200 126.036,115.200 124.076 C 115.200 123.620,115.039 123.148,114.842 123.026 C 114.645 122.905,114.385 122.129,114.263 121.303 C 114.141 120.476,113.844 118.810,113.603 117.600 C 112.486 111.990,112.263 109.162,112.251 100.400 C 112.234 88.310,113.130 82.181,116.317 72.600 C 118.221 66.875,123.190 56.035,124.079 55.667 C 124.255 55.593,124.400 55.360,124.400 55.149 C 124.400 54.746,128.327 48.748,128.818 48.400 C 131.396 46.573,132.315 41.464,130.547 38.791 C 129.508 37.222,129.188 36.912,129.212 37.500 " stroke="none" fill="#c93341" fill-rule="evenodd"></path><path id="path3" d="M192.900 11.876 C 193.285 11.976,193.915 11.976,194.300 11.876 C 194.685 11.775,194.370 11.693,193.600 11.693 C 192.830 11.693,192.515 11.775,192.900 11.876 M141.300 31.476 C 141.685 31.576,142.315 31.576,142.700 31.476 C 143.085 31.375,142.770 31.293,142.000 31.293 C 141.230 31.293,140.915 31.375,141.300 31.476 M262.600 38.000 C 264.571 39.980,266.273 41.600,266.383 41.600 C 266.493 41.600,264.971 39.980,263.000 38.000 C 261.029 36.020,259.327 34.400,259.217 34.400 C 259.107 34.400,260.629 36.020,262.600 38.000 M288.093 91.200 C 288.093 91.970,288.175 92.285,288.276 91.900 C 288.376 91.515,288.376 90.885,288.276 90.500 C 288.175 90.115,288.093 90.430,288.093 91.200 M288.551 100.400 C 288.551 102.930,288.616 103.965,288.696 102.700 C 288.775 101.435,288.775 99.365,288.696 98.100 C 288.616 96.835,288.551 97.870,288.551 100.400 M111.293 104.400 C 111.293 105.170,111.375 105.485,111.476 105.100 C 111.576 104.715,111.576 104.085,111.476 103.700 C 111.375 103.315,111.293 103.630,111.293 104.400 M288.093 109.600 C 288.093 110.370,288.175 110.685,288.276 110.300 C 288.376 109.915,288.376 109.285,288.276 108.900 C 288.175 108.515,288.093 108.830,288.093 109.600 M262.592 162.900 L 259.000 166.600 262.700 163.008 C 266.136 159.672,266.582 159.200,266.292 159.200 C 266.232 159.200,264.567 160.865,262.592 162.900 M193.300 189.076 C 193.685 189.176,194.315 189.176,194.700 189.076 C 195.085 188.975,194.770 188.893,194.000 188.893 C 193.230 188.893,192.915 188.975,193.300 189.076 M205.300 189.076 C 205.685 189.176,206.315 189.176,206.700 189.076 C 207.085 188.975,206.770 188.893,206.000 188.893 C 205.230 188.893,204.915 188.975,205.300 189.076 M194.110 200.923 C 193.569 201.757,193.444 363.610,193.981 368.200 C 194.501 372.655,195.178 376.004,195.673 376.580 C 195.853 376.789,196.000 377.214,196.000 377.524 C 196.000 378.301,198.799 383.901,199.462 384.452 C 200.367 385.202,204.000 379.611,204.000 377.468 C 204.000 377.126,204.160 376.748,204.356 376.627 C 204.739 376.390,204.842 375.890,205.759 369.800 C 206.390 365.611,206.626 233.661,206.045 210.400 L 205.800 200.600 200.110 200.523 C 196.067 200.468,194.329 200.584,194.110 200.923 M205.382 218.100 C 205.534 227.395,205.592 265.780,205.509 303.400 L 205.360 371.800 204.454 374.787 C 203.339 378.467,200.697 383.800,199.990 383.800 C 199.337 383.800,197.027 379.332,196.164 376.400 C 195.808 375.190,195.311 373.660,195.059 373.000 C 194.519 371.588,194.162 245.986,194.618 218.100 L 194.894 201.200 200.000 201.200 L 205.106 201.200 205.382 218.100 " stroke="none" fill="#546c6c" fill-rule="evenodd"></path><path id="path4" d="M195.537 12.185 C 195.392 12.336,193.412 12.624,191.137 12.826 C 186.010 13.280,183.524 13.697,177.400 15.131 C 172.367 16.309,158.397 21.877,157.200 23.182 C 156.844 23.570,154.620 24.843,153.900 25.071 C 153.515 25.193,153.200 25.452,153.200 25.647 C 153.200 25.841,152.964 26.000,152.675 26.000 C 152.387 26.000,151.764 26.360,151.292 26.800 C 150.820 27.240,150.246 27.600,150.017 27.600 C 149.788 27.600,149.600 27.741,149.600 27.914 C 149.600 28.086,149.105 28.521,148.500 28.879 C 147.895 29.237,146.905 29.957,146.300 30.478 C 143.545 32.851,138.373 32.322,136.345 29.458 C 136.060 29.056,129.200 35.741,129.200 36.422 C 129.200 36.661,129.740 37.641,130.400 38.600 C 132.329 41.404,131.507 46.494,128.818 48.400 C 128.327 48.748,124.400 54.746,124.400 55.149 C 124.400 55.360,124.255 55.593,124.079 55.667 C 123.190 56.035,118.221 66.875,116.317 72.600 C 113.130 82.181,112.234 88.310,112.251 100.400 C 112.263 109.162,112.486 111.990,113.603 117.600 C 113.844 118.810,114.141 120.476,114.263 121.303 C 114.385 122.129,114.645 122.905,114.842 123.026 C 115.039 123.148,115.200 123.610,115.200 124.053 C 115.200 126.666,122.742 144.530,124.100 145.133 C 124.265 145.207,124.400 145.488,124.400 145.758 C 124.400 146.028,124.715 146.598,125.100 147.025 C 125.485 147.451,126.054 148.292,126.364 148.893 C 126.674 149.495,127.219 150.305,127.575 150.693 C 127.931 151.082,128.658 152.030,129.192 152.800 C 133.371 158.834,144.487 169.643,149.645 172.690 C 150.280 173.065,150.800 173.514,150.800 173.686 C 150.800 173.859,150.993 174.000,151.228 174.000 C 151.463 174.000,152.408 174.514,153.328 175.143 C 156.032 176.992,161.825 179.944,166.577 181.893 C 172.289 184.237,173.199 184.525,180.800 186.410 C 191.692 189.110,208.484 189.119,219.100 186.430 C 220.035 186.194,221.475 185.832,222.300 185.627 C 227.650 184.295,232.947 182.350,237.515 180.041 C 241.791 177.880,250.909 167.462,255.756 159.200 C 280.338 117.296,274.882 57.948,243.489 25.749 C 239.011 21.156,235.998 19.423,227.800 16.728 C 223.673 15.371,219.500 14.326,215.200 13.572 C 209.922 12.646,196.034 11.667,195.537 12.185 " stroke="none" fill="#fb3c3c" fill-rule="evenodd"></path></g></svg>